<?xml version="1.0" standalone="no"?>
<!DOCTYPE svg PUBLIC "-//W3C//DTD SVG 20010904//EN"
 "http://www.w3.org/TR/2001/REC-SVG-20010904/DTD/svg10.dtd">
<svg version="1.0" xmlns="http://www.w3.org/2000/svg"
 width="259.000000pt" height="259.000000pt" viewBox="0 0 259.000000 259.000000"
 preserveAspectRatio="xMidYMid meet">
<metadata>
Created by potrace 1.11, written by Peter Selinger 2001-2013
</metadata>
<g transform="translate(0.000000,259.000000) scale(0.100000,-0.100000)"
fill="#000000" stroke="none">
<path d="M1185 2523 c-55 -29 -170 -90 -255 -135 -85 -44 -186 -97 -225 -118
-83 -44 -238 -126 -390 -205 -202 -106 -296 -157 -293 -160 3 -3 271 -144 473
-250 72 -37 135 -71 140 -75 6 -4 82 -44 170 -90 88 -46 183 -95 210 -110 225
-122 286 -151 298 -142 7 5 59 34 117 64 191 101 303 159 545 288 258 137 420
223 527 279 38 19 65 38 60 42 -4 4 -43 26 -87 49 -144 76 -288 152 -370 195
-44 23 -181 95 -305 160 -124 65 -247 130 -275 145 -78 43 -232 120 -236 119
-2 -1 -49 -26 -104 -56z"/>
<path d="M455 1566 c-22 -12 -101 -54 -175 -94 -241 -126 -260 -137 -260 -144
0 -5 4 -8 9 -8 5 0 40 -17 78 -38 37 -22 108 -61 158 -87 50 -26 119 -64 155
-83 36 -19 101 -54 145 -77 96 -51 585 -313 671 -360 l61 -33 69 37 c38 21
110 59 159 85 160 86 279 150 330 178 28 15 73 38 100 52 28 14 97 52 156 84
58 31 185 100 282 152 97 52 177 97 177 101 0 3 -108 63 -239 133 l-240 127
-88 -49 c-48 -27 -137 -75 -198 -107 -60 -32 -123 -66 -140 -75 -16 -9 -82
-44 -145 -78 -63 -33 -139 -74 -168 -90 l-54 -29 -56 29 c-32 17 -75 40 -97
53 -22 12 -94 51 -160 85 -66 35 -124 66 -130 70 -5 4 -55 31 -110 60 -55 29
-132 70 -171 91 -39 22 -73 39 -75 39 -2 -1 -22 -11 -44 -24z"/>
<path d="M245 879 c-126 -71 -231 -132 -232 -136 -1 -5 55 -39 125 -78 69 -38
156 -86 192 -106 36 -20 83 -46 105 -59 22 -12 78 -44 125 -70 47 -26 105 -59
130 -73 57 -31 260 -144 457 -254 143 -79 154 -83 175 -69 13 8 176 100 363
204 187 104 360 201 385 214 25 14 104 58 175 98 72 40 153 85 180 101 28 16
74 41 103 56 29 15 51 31 49 36 -1 5 -34 26 -72 47 -39 21 -143 79 -233 129
-90 50 -169 91 -175 91 -7 0 -21 -6 -32 -14 -11 -7 -47 -28 -80 -46 -70 -38
-341 -189 -425 -237 -19 -11 -86 -48 -149 -83 l-114 -63 -36 19 c-20 10 -90
49 -155 86 -66 38 -121 68 -122 68 -2 0 -29 15 -61 34 -32 18 -80 46 -108 61
-27 15 -110 61 -183 101 -73 41 -138 74 -145 73 -7 -1 -115 -59 -242 -130z"/>
</g>
</svg>
